<svg width="27" height="24" viewBox="0 0 27 24" fill="none" xmlns="http://www.w3.org/2000/svg">
<mask id="path-1-inside-1_149_2274" fill="white">
<path d="M0 4C0 1.79086 1.79086 0 4 0H22.3218C24.531 0 26.3218 1.79086 26.3218 4V19.9289C26.3218 22.1381 24.531 23.9289 22.3218 23.9289H1C0.447715 23.9289 0 23.4812 0 22.9289V4Z"/>
</mask>
<path d="M0 4C0 1.79086 1.79086 0 4 0H22.3218C24.531 0 26.3218 1.79086 26.3218 4V19.9289C26.3218 22.1381 24.531 23.9289 22.3218 23.9289H1C0.447715 23.9289 0 23.4812 0 22.9289V4Z" stroke="#7E98DF" stroke-width="4" mask="url(#path-1-inside-1_149_2274)"/>
<rect x="5.98242" y="10.768" width="14.3574" height="2.39289" rx="1.19645" fill="#7E98DF"/>
<rect x="5.98242" y="5.98224" width="14.3574" height="2.39289" rx="1.19645" fill="#7E98DF"/>
<rect x="5.98242" y="15.5538" width="14.3574" height="2.39289" rx="1.19645" fill="#7E98DF"/>
</svg>
